<svg xmlns="http://www.w3.org/2000/svg" width="26" height="26" viewBox="0 0 26 26">
  <g id="Group_2325" data-name="Group 2325" transform="translate(-600 -683.298)">
    <g id="Ellipse_1476" data-name="Ellipse 1476" transform="translate(600 683.298)" fill="none" stroke="#919191" stroke-width="0.7">
      <circle cx="13" cy="13" r="13" stroke="none"/>
      <circle cx="13" cy="13" r="12.65" fill="none"/>
    </g>
    <path id="twitter" d="M11.992,1.131a5.028,5.028,0,0,1-1.2,1.242q.007.1.007.312a6.826,6.826,0,0,1-.283,1.93,6.977,6.977,0,0,1-.859,1.848A7.264,7.264,0,0,1,8.28,8.03,6.107,6.107,0,0,1,6.361,9.116a7.033,7.033,0,0,1-2.4.405A6.672,6.672,0,0,1,.269,8.443a5.139,5.139,0,0,0,.58.03A4.7,4.7,0,0,0,3.832,7.446,2.406,2.406,0,0,1,1.586,5.779a3.056,3.056,0,0,0,.454.037,2.49,2.49,0,0,0,.632-.082,2.363,2.363,0,0,1-1.38-.829A2.32,2.32,0,0,1,.745,3.377v-.03a2.382,2.382,0,0,0,1.086.3A2.4,2.4,0,0,1,1.051,2.8,2.344,2.344,0,0,1,.76,1.651,2.353,2.353,0,0,1,1.088.439a6.8,6.8,0,0,0,2.19,1.774,6.7,6.7,0,0,0,2.763.74,2.669,2.669,0,0,1-.06-.55,2.315,2.315,0,0,1,.7-1.7A2.408,2.408,0,0,1,10.14.759a4.7,4.7,0,0,0,1.525-.58A2.334,2.334,0,0,1,10.608,1.5a4.789,4.789,0,0,0,1.384-.372Z" transform="translate(606.87 691.933)" fill="#919191"/>
  </g>
</svg>
