<svg xmlns="http://www.w3.org/2000/svg" width="26" height="26" viewBox="0 0 26 26">
  <g id="Group_2324" data-name="Group 2324" transform="translate(-635 -683.298)">
    <g id="Ellipse_1476" data-name="Ellipse 1476" transform="translate(635 683.298)" fill="none" stroke="#919191" stroke-width="0.7">
      <circle cx="13" cy="13" r="13" stroke="none"/>
      <circle cx="13" cy="13" r="12.65" fill="none"/>
    </g>
    <path id="linkedin" d="M2.65,4.091v7.525H.144V4.091H2.65ZM2.81,1.767a1.2,1.2,0,0,1-.384.926A1.432,1.432,0,0,1,1.4,3.066H1.382a1.371,1.371,0,0,1-1-.372A1.244,1.244,0,0,1,0,1.768,1.223,1.223,0,0,1,.391.837,1.429,1.429,0,0,1,1.412.469a1.389,1.389,0,0,1,1.01.368,1.267,1.267,0,0,1,.388.93ZM11.664,7.3v4.313h-2.5V7.592a2.2,2.2,0,0,0-.307-1.249A1.081,1.081,0,0,0,7.9,5.891a1.23,1.23,0,0,0-.8.262,1.616,1.616,0,0,0-.482.649,1.834,1.834,0,0,0-.084.615v4.2h-2.5q.015-3.03.015-4.913T4.04,4.455l-.007-.364h2.5V5.184H6.516a3.324,3.324,0,0,1,.311-.425,3.224,3.224,0,0,1,.429-.395,1.977,1.977,0,0,1,.661-.33,2.99,2.99,0,0,1,.869-.117,2.7,2.7,0,0,1,2.088.862,3.618,3.618,0,0,1,.79,2.525Z" transform="translate(642.168 689.837)" fill="#919191"/>
  </g>
</svg>
