<svg xmlns="http://www.w3.org/2000/svg" width="26" height="26" viewBox="0 0 26 26">
  <g id="Group_2323" data-name="Group 2323" transform="translate(-670 -683.298)">
    <g id="Ellipse_1476" data-name="Ellipse 1476" transform="translate(670 683.298)" fill="none" stroke="#919191" stroke-width="0.7">
      <circle cx="13" cy="13" r="13" stroke="none"/>
      <circle cx="13" cy="13" r="12.65" fill="none"/>
    </g>
    <path id="youtube-play" d="M5.136,6.428l3.5-1.806-3.5-1.828V6.428ZM6.472.2Q7.686.2,8.816.233T10.474.3L11,.331l.123.011a1.6,1.6,0,0,1,.166.022l.17.032a.993.993,0,0,1,.206.058q.087.036.2.094a1.354,1.354,0,0,1,.224.141A1.779,1.779,0,0,1,12.3.88a1.359,1.359,0,0,1,.112.134,2.459,2.459,0,0,1,.21.423,2.724,2.724,0,0,1,.191.73q.058.462.09.986t.039.821V5.244a15.287,15.287,0,0,1-.13,2.1,2.893,2.893,0,0,1-.181.719A1.823,1.823,0,0,1,12.4,8.5l-.1.123a1.7,1.7,0,0,1-.21.191,1.232,1.232,0,0,1-.224.137q-.115.054-.2.09a1.032,1.032,0,0,1-.206.058l-.173.032q-.054.01-.166.022L11,9.166Q9.188,9.3,6.472,9.3q-1.5-.014-2.6-.047T2.427,9.2l-.354-.029-.26-.029a3.383,3.383,0,0,1-.394-.072,2.24,2.24,0,0,1-.369-.152,1.439,1.439,0,0,1-.408-.3A1.359,1.359,0,0,1,.53,8.49a2.46,2.46,0,0,1-.21-.423,2.724,2.724,0,0,1-.191-.73q-.058-.462-.09-.986T0,5.532V4.261a15.287,15.287,0,0,1,.13-2.1A2.893,2.893,0,0,1,.31,1.447,1.823,1.823,0,0,1,.541,1L.642.88A1.7,1.7,0,0,1,.852.689,1.415,1.415,0,0,1,1.076.548q.115-.058.2-.094A1.042,1.042,0,0,1,1.484.4l.17-.032Q1.7.353,1.82.342L1.943.331Q3.756.2,6.473.2Z" transform="translate(676.528 691.545)" fill="#919191"/>
  </g>
</svg>
